Genre:Crime | Drama | Thriller
Language:English
IMDb:http://www.imdb.com/title/tt1189340/
Source:DVD9/Imagine&Hive-CM8 Thanks!


Format : MPEG-4
Format profile : Base Media
Codec ID : isom
File size : 1.27 GiB
Duration : 1h 53mn
Overall bit rate : 1 602 Kbps


Video
Format profile : High@L4.1
Format settings, CABAC : Yes
Format settings, ReFrames : 3 frames
Codec ID : avc1
Codec ID/Info : Advanced Video Coding
Duration : 1h 53mn
Bit rate mode : Variable
Bit rate : 1 200 Kbps
Maximum bit rate : 6 183 Kbps
Width : 720 pixels
Height : 304 pixels
Display aspect ratio : 2.35:1
Frame rate mode : Constant
Frame rate : 25.000 fps
Color space : YUV
Chroma subsampling : 4:2:0
Bit depth : 8 bits
Scan type : Progressive
Bits/(Pixel*Frame) : 0.219
Stream size : 976 MiB (75%)
Writing library : x264


Audio
ID : 2
Format : AAC
Format/Info : Advanced Audio Codec
Format version : Version 4
Format profile : LC
Format settings, SBR : No
Codec ID : 40
Duration : 1h 53mn
Bit rate mode : Variable
Bit rate : 396 Kbps
Maximum bit rate : 499 Kbps
Channel(s) : 6 channels
Channel positions : Front: L C R, Side: L R, LFE
Sampling rate : 48.0 KHz
Stream size : 322 MiB (25%)


Plot:
A lawyer conducts business from the back of his Lincoln town car while representing a high-profile client in Beverly Hills.

Screens:
 
http://www.pix2links.com/images/99498125695759681429.png 
http://www.pix2links.com/images/32823153845344836075.png 
http://www.pix2links.com/images/20269290419103613291.png 
http://www.pix2links.com/images/34329461811824165651.png 
http://www.pix2links.com/images/26970096396905776423.png

Greets:

INK,CRYS,IMAGINE,LKRG,FXG,3Li,FLAWL3SS,TA,iLLUSiON,ViSiON,DTRG SAFCuk009,LU,TheFalcon007,MYSTiC,PrisM,Noir,WBZ,LAP,Rx,Kingdom,SAFCuk009+Fabreezy,HDLiTE,TWiZTED,ExtraTorrentRG.ELEKTRI4KA,MAGNAT,CM8
And to all the other p2p grps past and present.